<?xml version="1.0" standalone="no"?>
<!DOCTYPE svg PUBLIC "-//W3C//DTD SVG 20010904//EN"
 "http://www.w3.org/TR/2001/REC-SVG-20010904/DTD/svg10.dtd">
<svg version="1.0" xmlns="http://www.w3.org/2000/svg"
 width="430.000000pt" height="524.000000pt" viewBox="0 0 430.000000 524.000000"
 preserveAspectRatio="xMidYMid meet">

<g transform="translate(0.000000,524.000000) scale(0.100000,-0.100000)"
fill="#000000" stroke="none">
<path d="M2168 4945 c-37 -21 -83 -121 -104 -226 l-16 -85 -61 -20 c-33 -10
-62 -23 -64 -29 -6 -22 18 -39 60 -44 l44 -6 -38 -140 c-41 -146 -42 -177 -9
-195 18 -10 23 -6 40 32 10 24 36 108 57 188 l38 144 63 13 c68 14 102 28 102
44 0 17 -53 31 -97 26 -51 -5 -52 0 -27 96 19 75 48 132 70 141 22 8 51 -18
59 -54 14 -62 65 -66 65 -5 0 47 -22 98 -51 119 -29 20 -95 20 -131 1z"/>
<path d="M2617 4862 c-64 -65 -82 -102 -56 -117 6 -4 48 18 95 49 86 58 97 74
74 117 -18 32 -43 22 -113 -49z"/>
<path d="M1229 4886 c-104 -37 -215 -150 -285 -290 -40 -81 -48 -106 -52 -170
-4 -67 -2 -79 21 -119 62 -105 170 -131 298 -70 76 35 149 96 149 124 0 26
-10 24 -81 -11 -174 -88 -299 -70 -299 44 0 95 65 221 161 317 56 54 112 89
147 91 9 1 32 -2 50 -6 28 -7 32 -5 32 13 0 29 -57 91 -84 91 -11 -1 -37 -7
-57 -14z"/>
<path d="M1649 4670 c-128 -68 -258 -324 -205 -405 25 -38 75 -65 121 -65 44
0 70 14 126 67 l36 34 7 -38 c8 -48 20 -67 38 -60 15 5 48 178 48 253 0 23 5
55 11 72 15 43 -3 93 -47 132 -41 35 -81 39 -135 10z m101 -79 c15 -29 12 -60
-11 -120 -27 -72 -72 -135 -117 -166 -58 -39 -112 -30 -112 20 0 37 66 159
115 213 65 72 105 89 125 53z"/>
<path d="M2469 4670 c-47 -25 -112 -97 -145 -162 -20 -39 -28 -72 -32 -128 -3
-66 -1 -79 20 -109 33 -48 81 -71 151 -71 63 0 119 19 154 52 49 46 19 60 -71
33 -129 -39 -205 3 -178 100 l8 30 96 -3 c105 -4 163 12 203 57 28 32 24 91
-9 141 -51 77 -124 99 -197 60z m126 -91 c34 -41 29 -69 -15 -91 -37 -19 -164
-25 -174 -9 -7 11 44 82 79 109 40 32 78 28 110 -9z"/>
<path d="M2931 4664 c-78 -39 -131 -93 -131 -133 0 -47 14 -66 81 -112 78 -53
99 -74 99 -100 0 -50 -134 -63 -204 -19 -45 27 -66 26 -66 -3 0 -77 182 -127
278 -78 123 63 106 144 -56 254 -24 16 -42 36 -42 47 0 23 49 65 95 80 30 10
40 9 75 -11 22 -12 43 -20 46 -16 12 12 -7 60 -36 88 -36 37 -70 37 -139 3z"/>
<path d="M1645 3406 c-87 -27 -157 -85 -171 -142 -13 -49 4 -131 49 -244 41
-104 51 -144 48 -190 -1 -9 -17 -40 -37 -70 l-36 -55 5 -122 c4 -136 9 -126
-68 -139 -86 -14 -254 -56 -343 -85 -78 -26 -95 -35 -104 -58 -17 -44 -3 -769
17 -861 31 -141 96 -264 196 -374 l47 -52 -95 -29 c-129 -38 -202 -75 -241
-119 -28 -32 -32 -44 -32 -95 0 -81 44 -168 114 -223 190 -151 547 -203 1166
-168 341 20 577 64 728 136 122 59 232 181 232 259 0 86 -110 167 -296 216
l-83 22 39 45 c22 24 52 64 67 87 l26 42 76 6 c216 18 374 105 443 245 32 64
33 72 33 182 0 110 -2 119 -32 181 -39 78 -102 141 -178 175 -58 27 -170 54
-224 54 l-34 0 5 134 5 135 -52 25 c-123 58 -337 120 -506 146 l-77 12 -6 37
c-3 20 -6 70 -6 112 0 65 3 81 25 110 67 92 67 119 -1 285 -89 215 -69 298 86
355 33 12 60 26 60 30 0 13 -9 11 -79 -12 -110 -37 -172 -124 -156 -219 3 -20
26 -86 51 -146 25 -60 48 -133 51 -161 5 -49 3 -56 -33 -109 l-39 -57 3 -109
2 -110 -107 7 c-60 4 -111 9 -115 12 -5 2 -8 50 -8 107 l0 103 36 46 c35 45
37 49 31 110 -4 41 -21 99 -51 172 -84 201 -57 286 107 341 45 15 63 34 32 34
-31 0 -128 -43 -160 -71 -45 -40 -70 -106 -62 -164 4 -25 27 -95 52 -156 26
-61 49 -132 52 -158 5 -42 1 -51 -33 -101 l-39 -55 2 -107 1 -108 -67 0 c-38
0 -88 -3 -113 -6 l-45 -6 -6 83 c-8 109 2 159 43 205 30 35 32 41 27 95 -3 35
-21 94 -47 155 -23 54 -47 124 -53 155 -9 51 -8 61 13 103 17 35 35 54 74 76
28 16 63 32 78 36 16 3 28 10 28 16 0 6 -6 8 -12 6 -7 -3 -36 -13 -64 -22 -71
-23 -131 -76 -145 -129 -16 -61 -7 -108 44 -238 67 -169 69 -187 21 -256 l-39
-57 0 -113 0 -113 -40 -4 c-22 -3 -70 -9 -108 -14 -67 -9 -68 -8 -74 17 -4 14
-7 72 -7 128 -1 91 1 104 22 130 12 15 30 43 39 61 22 43 10 101 -47 235 -50
118 -60 188 -34 242 19 42 85 89 146 106 21 5 38 14 38 19 0 12 -5 12 -55 -4z
m408 -976 c9 -23 22 -40 31 -40 20 0 20 13 1 50 l-16 30 39 0 c22 0 74 -3 116
-7 76 -6 78 -7 94 -40 9 -18 22 -33 29 -33 16 0 17 14 3 41 -14 25 -1 25 132
-1 129 -25 261 -63 356 -102 l72 -30 -3 -446 c-3 -499 -2 -485 -79 -633 -123
-240 -429 -424 -765 -461 -469 -53 -943 280 -1012 712 -6 37 -11 228 -11 446
0 354 1 382 18 389 112 46 381 115 447 115 13 0 28 -7 33 -17 12 -20 44 -10
36 11 -7 18 10 23 101 31 39 4 77 9 86 11 12 3 20 -5 27 -26 8 -20 18 -30 32
-30 20 0 20 1 5 29 l-15 30 43 4 c23 2 74 4 113 5 l71 2 16 -40z m1089 -460
c112 -35 185 -97 231 -198 18 -39 22 -66 22 -152 0 -93 -3 -112 -27 -162 -60
-129 -209 -213 -414 -234 l-63 -7 24 59 c14 33 27 80 31 107 l7 47 46 0 c56 0
120 28 149 64 26 34 47 123 38 167 -16 84 -69 128 -168 136 l-58 6 0 99 0 100
63 -7 c34 -4 88 -15 119 -25z m-46 -224 c42 -28 59 -65 57 -126 0 -32 -9 -72
-18 -89 -19 -38 -82 -70 -137 -71 l-38 0 0 156 0 157 56 -6 c30 -3 66 -13 80
-21z m-1719 -833 l45 -31 -26 -17 c-36 -24 -66 -76 -66 -115 0 -66 94 -113
285 -142 111 -18 686 -17 780 0 220 40 278 107 181 207 l-43 46 66 44 c36 24
77 53 91 63 24 19 27 19 95 2 195 -50 305 -122 305 -199 0 -31 -48 -80 -111
-111 -158 -80 -443 -130 -871 -152 -256 -13 -450 -3 -648 32 -297 54 -572 195
-545 280 15 47 116 99 280 145 l80 22 28 -21 c16 -11 49 -35 74 -53z m180 -97
c45 -20 126 -49 180 -63 86 -23 117 -26 253 -26 135 0 168 3 255 26 55 15 135
41 177 58 l77 31 34 -26 c39 -30 60 -66 55 -92 -5 -30 -76 -62 -179 -81 -132
-25 -655 -25 -804 0 -127 21 -164 32 -206 60 -49 33 -50 65 -3 117 44 48 43
48 161 -4z m-505 -177 c203 -103 452 -156 778 -166 385 -12 863 44 1094 128
81 29 81 29 51 4 -92 -76 -295 -140 -531 -169 -311 -38 -813 -43 -1031 -10
-289 43 -450 138 -498 294 -7 23 -5 22 33 -12 23 -21 70 -52 104 -69z"/>
<path d="M1775 2250 c-113 -13 -277 -46 -385 -76 l-92 -27 -88 35 c-69 28 -90
33 -94 22 -6 -16 -8 -15 89 -54 368 -148 836 -190 1212 -109 175 38 426 133
420 159 -4 19 -6 18 -95 -21 -67 -31 -75 -32 -115 -21 -130 37 -233 62 -317
77 -112 20 -417 28 -535 15z"/>
</g>
</svg>
