<?xml version="1.0" standalone="no"?>
<!DOCTYPE svg PUBLIC "-//W3C//DTD SVG 20010904//EN"
 "http://www.w3.org/TR/2001/REC-SVG-20010904/DTD/svg10.dtd">
<svg version="1.0" xmlns="http://www.w3.org/2000/svg"
 width="430.000000pt" height="524.000000pt" viewBox="0 0 430.000000 524.000000"
 preserveAspectRatio="xMidYMid meet">

<g transform="translate(0.000000,524.000000) scale(0.100000,-0.100000)"
fill="#000000" stroke="none">
<path d="M1049 4716 c-104 -37 -215 -150 -285 -290 -40 -81 -48 -106 -52 -170
-4 -67 -2 -79 21 -119 62 -105 170 -131 298 -70 76 35 149 96 149 124 0 26
-10 24 -81 -11 -174 -88 -299 -70 -299 44 0 95 65 221 161 317 56 54 112 89
147 91 9 1 32 -2 50 -6 28 -7 32 -5 32 13 0 29 -57 91 -84 91 -11 -1 -37 -7
-57 -14z"/>
<path d="M2117 4523 c-4 -3 -7 -23 -7 -44 0 -59 -35 -248 -86 -462 -44 -187
-45 -198 -30 -222 36 -54 54 -24 92 156 l17 79 47 0 c99 0 248 107 303 219 44
90 34 182 -26 249 -39 43 -116 24 -189 -46 l-38 -36 0 28 c0 17 -11 38 -29 57
-30 29 -42 34 -54 22z m271 -113 c8 -16 11 -42 7 -69 -13 -106 -114 -206 -239
-235 l-29 -7 7 43 c15 97 102 231 181 280 37 23 56 20 73 -12z"/>
<path d="M1337 4513 c-4 -3 -7 -49 -7 -102 -1 -92 -10 -150 -43 -274 -16 -59
-12 -97 14 -113 21 -13 45 30 90 161 51 153 93 217 167 259 77 44 68 87 -15
71 -26 -5 -51 -22 -90 -62 l-53 -56 0 39 c0 57 -38 103 -63 77z"/>
<path d="M1772 4499 c-86 -43 -169 -176 -179 -288 -10 -111 58 -181 175 -181
73 0 165 42 170 78 4 27 -23 29 -92 6 -60 -21 -144 -15 -163 12 -13 18 -18 80
-8 106 4 11 27 13 103 10 85 -4 104 -1 145 18 49 23 77 60 77 100 0 45 -52
120 -102 146 -38 20 -76 17 -126 -7z m124 -84 c36 -36 30 -75 -16 -97 -39 -20
-155 -25 -165 -7 -10 15 44 89 80 111 41 25 71 23 101 -7z"/>
<path d="M2702 4499 c-86 -43 -169 -176 -179 -288 -10 -111 58 -181 175 -181
73 0 165 42 170 78 4 27 -23 29 -92 6 -60 -21 -144 -15 -163 12 -13 18 -18 80
-8 106 4 11 27 13 103 10 85 -4 104 -1 145 18 49 23 77 60 77 100 0 45 -52
120 -102 146 -38 20 -76 17 -126 -7z m124 -84 c36 -36 30 -75 -16 -97 -39 -20
-155 -25 -165 -7 -10 15 44 89 80 111 41 25 71 23 101 -7z"/>
<path d="M3181 4494 c-78 -39 -131 -93 -131 -133 0 -47 14 -66 81 -112 78 -53
99 -74 99 -100 0 -50 -134 -63 -204 -19 -45 27 -66 26 -66 -3 0 -77 182 -127
278 -78 123 63 106 144 -56 254 -24 16 -42 36 -42 47 0 23 49 65 95 80 30 10
40 9 75 -11 22 -12 43 -20 46 -16 12 12 -7 60 -36 88 -36 37 -70 37 -139 3z"/>
<path d="M1265 3490 c-59 -24 -142 -153 -185 -286 -62 -195 -99 -399 -125
-689 -19 -213 -35 -292 -120 -610 -78 -292 -89 -354 -83 -464 20 -338 316
-633 765 -762 107 -30 249 -47 533 -64 146 -8 405 -29 575 -45 651 -62 747
-61 875 3 107 53 130 119 89 253 -68 221 -165 350 -844 1119 -503 571 -622
712 -878 1051 -213 282 -341 408 -482 475 -62 30 -86 34 -120 19z m84 -55 c67
-33 184 -129 255 -206 32 -35 136 -167 231 -294 95 -126 224 -291 286 -365
111 -133 173 -204 625 -715 262 -297 444 -508 526 -611 145 -182 249 -368 269
-481 10 -54 9 -67 -7 -100 -36 -72 -116 -103 -264 -103 -90 0 -337 19 -704 55
-141 13 -361 29 -488 35 -128 6 -269 15 -313 21 -327 42 -636 196 -796 397
-114 142 -167 301 -154 462 4 53 29 174 67 320 105 403 116 462 138 690 46
487 121 764 243 898 25 27 27 27 86 -3z"/>
<path d="M1345 3347 c-3 -7 -2 -32 3 -55 9 -38 8 -42 -12 -48 -97 -30 -158
-174 -205 -491 -26 -168 -68 -345 -149 -618 -33 -110 -65 -235 -72 -278 -23
-141 6 -292 70 -367 17 -19 44 -64 61 -99 61 -130 153 -234 279 -315 25 -15
65 -55 90 -88 65 -86 165 -177 229 -207 l56 -26 325 0 325 0 205 -47 c324 -74
427 -81 547 -36 51 19 105 68 117 106 6 19 9 19 46 5 56 -22 108 -69 118 -106
9 -36 28 -44 56 -24 16 12 17 16 3 48 -20 49 -80 95 -154 120 -151 50 -360 69
-973 89 -168 5 -352 17 -409 25 -407 59 -668 205 -780 436 -53 110 -71 195
-71 338 0 265 53 476 240 961 67 174 97 273 115 385 28 169 14 297 -33 303
-12 2 -24 -3 -27 -11z m15 -145 c0 -62 -22 -203 -46 -292 -14 -52 -66 -197
-115 -322 -93 -238 -144 -396 -180 -563 -19 -84 -23 -133 -23 -303 l-1 -204
-23 51 c-13 27 -28 79 -33 113 -19 111 -2 203 86 493 70 227 102 363 140 586
45 272 82 387 140 445 33 33 55 31 55 -4z m245 -2248 c192 -58 330 -72 804
-84 376 -10 530 -19 674 -44 82 -13 95 -31 56 -80 -60 -77 -186 -86 -428 -31
-363 82 -335 79 -681 80 -363 0 -349 -3 -457 99 -70 65 -99 105 -67 91 11 -4
55 -18 99 -31z"/>
<path d="M1617 2725 c-44 -15 -77 -43 -118 -99 -36 -48 -36 -56 -4 -56 19 0
31 9 43 32 9 18 34 50 55 72 35 36 40 38 80 33 62 -8 101 -55 95 -112 -9 -80
-86 -167 -293 -336 -201 -164 -265 -247 -251 -324 28 -145 175 -122 514 79
248 148 358 182 403 127 27 -33 24 -70 -9 -122 -35 -54 -99 -110 -312 -270
-271 -204 -351 -293 -336 -373 11 -60 70 -96 156 -96 99 0 213 44 537 207 289
145 318 157 376 161 60 4 65 2 85 -23 16 -20 22 -42 22 -77 0 -85 -38 -136
-198 -263 -106 -85 -126 -135 -76 -195 43 -50 99 -74 174 -74 76 0 127 20 210
83 62 46 154 151 142 163 -16 16 -49 -6 -87 -58 -43 -58 -122 -126 -168 -143
-40 -16 -123 -14 -156 4 -38 19 -81 71 -81 98 0 35 30 71 110 135 163 128 219
219 189 305 -30 85 -102 100 -246 51 -43 -14 -204 -91 -358 -169 -154 -79
-304 -150 -334 -159 -80 -23 -151 -21 -192 7 -108 72 -24 195 286 417 174 125
304 242 329 294 46 98 -25 166 -152 145 -77 -12 -154 -47 -335 -152 -295 -173
-363 -196 -406 -141 -15 19 -21 41 -21 74 0 73 42 125 231 282 241 201 309
284 309 374 0 86 -109 137 -213 99z"/>
</g>
</svg>
