<?xml version="1.0" standalone="no"?>
<!DOCTYPE svg PUBLIC "-//W3C//DTD SVG 20010904//EN"
 "http://www.w3.org/TR/2001/REC-SVG-20010904/DTD/svg10.dtd">
<svg version="1.0" xmlns="http://www.w3.org/2000/svg"
 width="430.000000pt" height="524.000000pt" viewBox="0 0 430.000000 524.000000"
 preserveAspectRatio="xMidYMid meet">

<g transform="translate(0.000000,524.000000) scale(0.100000,-0.100000)"
fill="#000000" stroke="none">
<path d="M1355 4876 c-55 -18 -135 -60 -163 -86 -29 -27 -42 -61 -42 -106 0
-31 13 -48 110 -149 92 -95 110 -118 110 -145 0 -59 -78 -110 -168 -110 -49 0
-118 34 -151 73 -32 39 -61 5 -36 -43 67 -130 286 -147 400 -30 33 34 39 47
43 95 6 71 -15 104 -142 226 -78 75 -89 91 -80 106 24 40 85 68 222 103 48 12
57 39 20 64 -27 19 -68 19 -123 2z"/>
<path d="M1658 4663 c-42 -48 -105 -226 -114 -322 -6 -68 15 -109 71 -135 36
-17 39 -17 77 0 22 10 59 40 83 68 l44 49 -6 -54 c-4 -44 -2 -57 11 -68 15
-12 19 -12 30 0 16 17 126 375 126 410 0 32 -26 69 -49 69 -12 0 -22 -16 -35
-57 -23 -74 -97 -219 -142 -278 -53 -69 -115 -92 -126 -47 -8 31 19 136 61
232 44 102 48 119 29 138 -17 17 -42 15 -60 -5z"/>
<path d="M2230 4660 c-114 -61 -221 -260 -191 -353 23 -69 111 -123 179 -111
49 9 115 40 146 69 50 46 28 63 -44 35 -31 -12 -74 -20 -110 -20 -52 0 -61 3
-76 25 -33 51 12 160 102 245 56 53 85 61 120 35 27 -20 54 -19 54 3 0 19 -25
60 -50 79 -22 18 -90 15 -130 -7z"/>
<path d="M2635 4662 c-69 -42 -133 -143 -154 -241 -22 -102 9 -189 75 -217 54
-23 128 2 188 61 154 154 134 415 -32 415 -28 0 -59 -8 -77 -18z m112 -62 c53
-84 -8 -263 -108 -319 l-42 -24 -20 24 c-46 56 3 230 85 305 43 39 68 43 85
14z"/>
<path d="M3121 4658 c-68 -33 -131 -98 -131 -134 0 -40 20 -65 82 -107 100
-66 121 -107 68 -134 -42 -21 -112 -16 -165 13 -52 27 -75 26 -75 -6 0 -28 71
-77 134 -91 66 -14 148 6 195 50 59 55 33 121 -79 201 -36 26 -66 54 -68 63
-5 23 43 65 91 79 34 10 44 9 69 -5 38 -22 58 -22 58 1 0 20 -25 60 -48 80
-24 19 -82 14 -131 -10z"/>
<path d="M2737 3858 c-9 -7 -20 -31 -25 -53 -5 -22 -37 -134 -71 -250 -34
-115 -64 -217 -66 -225 -4 -13 -41 -15 -252 -15 -274 0 -356 -11 -532 -67
-233 -73 -355 -177 -354 -298 0 -25 33 -333 72 -685 39 -352 93 -845 120
-1095 28 -250 55 -471 62 -490 35 -102 131 -188 270 -245 142 -57 381 -82 535
-54 202 35 370 133 430 251 26 52 36 107 59 348 9 91 56 576 105 1077 57 588
86 923 81 941 -31 106 -121 177 -308 242 -51 18 -93 37 -93 42 0 5 29 111 65
236 36 125 65 234 65 244 0 25 -49 79 -87 94 -40 17 -55 17 -76 2z m108 -50
c41 -18 29 -28 -14 -11 -22 9 -48 12 -58 9 -17 -7 -16 -9 6 -27 13 -10 36 -19
52 -19 16 0 29 -3 29 -7 0 -5 -71 -258 -159 -563 l-158 -555 -62 -8 c-34 -5
-64 -7 -67 -5 -4 4 333 1175 343 1191 7 11 59 8 88 -5z m-317 -535 c12 -3 22
-10 22 -16 0 -9 -78 -283 -177 -621 -5 -18 -13 -19 -142 -13 -278 13 -521 80
-655 182 -86 66 -112 169 -62 245 71 108 326 205 599 230 100 8 370 5 415 -7z
m350 -85 c99 -38 175 -89 212 -139 61 -84 32 -188 -73 -263 -84 -60 -258 -124
-383 -141 l-51 -6 85 295 85 296 26 -7 c14 -3 59 -19 99 -35z m208 -634 c-14
-143 -28 -291 -32 -331 -8 -86 -26 -120 -89 -163 -117 -81 -323 -129 -585
-137 -421 -13 -745 77 -806 224 -8 18 -14 55 -14 82 0 43 -38 414 -56 540 l-6
43 47 -32 c148 -102 383 -162 680 -175 107 -4 130 -8 129 -20 -4 -39 -39 -147
-48 -150 -6 -1 -72 -8 -146 -14 -220 -18 -413 -72 -489 -138 -51 -43 -64 -73
-50 -110 31 -83 163 -148 384 -188 107 -20 415 -28 525 -14 200 24 381 86 441
150 60 65 28 142 -83 197 -65 32 -220 76 -308 88 -28 4 -52 9 -54 13 -2 3 9
49 24 101 30 107 16 96 165 129 129 28 258 77 329 125 33 23 62 41 64 40 2 -1
-8 -118 -22 -260z m-555 51 c0 -6 -28 -110 -63 -232 l-63 -223 -69 0 c-56 0
-67 3 -63 15 4 8 31 100 62 206 77 261 64 237 127 242 66 4 70 4 69 -8z"/>
</g>
</svg>
