<?xml version="1.0" standalone="no"?>
<!DOCTYPE svg PUBLIC "-//W3C//DTD SVG 20010904//EN"
 "http://www.w3.org/TR/2001/REC-SVG-20010904/DTD/svg10.dtd">
<svg version="1.0" xmlns="http://www.w3.org/2000/svg"
 width="430.000000pt" height="524.000000pt" viewBox="0 0 430.000000 524.000000"
 preserveAspectRatio="xMidYMid meet">

<g transform="translate(0.000000,524.000000) scale(0.100000,-0.100000)"
fill="#000000" stroke="none">
<path d="M488 4591 c-59 -9 -66 -16 -47 -49 14 -26 18 -27 108 -28 50 -1 94
-4 96 -6 6 -6 -21 -136 -70 -338 -44 -180 -45 -191 -30 -220 19 -37 42 -39 55
-4 18 46 130 519 130 546 l0 26 115 -5 c111 -6 115 -5 115 14 0 26 -44 47
-124 62 -64 12 -270 13 -348 2z"/>
<path d="M1988 4565 c-15 -33 3 -71 44 -95 25 -13 29 -13 44 2 16 15 15 20 -7
65 -29 58 -62 70 -81 28z"/>
<path d="M1140 4393 c-13 -3 -56 -37 -95 -76 -84 -85 -136 -180 -143 -261 -5
-65 11 -94 72 -127 39 -20 48 -22 83 -11 22 7 61 30 85 52 l46 40 6 -33 c8
-43 31 -75 45 -62 12 12 53 254 44 267 -3 6 0 27 7 48 16 49 7 82 -33 126 -32
35 -70 46 -117 37z m67 -85 c15 -19 22 -69 13 -87 -5 -9 -20 -41 -33 -71 -45
-104 -131 -175 -183 -151 -33 14 -31 51 5 126 37 78 100 157 142 178 41 20 44
20 56 5z"/>
<path d="M1440 4366 c0 -55 -37 -258 -85 -460 -41 -175 -43 -191 -29 -218 29
-56 45 -34 81 111 l28 113 47 4 c131 10 289 150 319 284 19 84 -40 200 -103
200 -38 0 -84 -24 -129 -67 l-36 -34 -6 30 c-8 37 -40 71 -67 71 -16 0 -20 -7
-20 -34z m262 -63 c48 -43 3 -175 -85 -247 -43 -35 -112 -66 -147 -66 -17 0
-17 4 -5 51 34 128 141 267 214 278 3 1 13 -6 23 -16z"/>
<path d="M1963 4388 c-11 -14 -113 -411 -113 -439 0 -22 24 -41 43 -33 22 8
66 136 116 339 19 76 19 81 3 109 -20 34 -35 42 -49 24z"/>
<path d="M2262 4379 c-108 -54 -193 -243 -162 -358 6 -23 24 -56 40 -74 25
-28 34 -32 77 -31 88 1 165 62 216 172 87 187 -19 368 -171 291z m103 -69 c44
-84 -11 -255 -100 -310 -43 -26 -59 -25 -73 5 -39 86 24 262 112 316 40 25 43
24 61 -11z"/>
<path d="M2752 4389 c-17 -5 -58 -35 -90 -67 -111 -109 -160 -265 -106 -339
32 -44 101 -75 151 -69 76 10 173 67 173 101 0 20 -19 19 -93 -6 -70 -24 -134
-21 -154 7 -35 48 12 168 98 249 53 50 82 56 130 28 62 -37 56 36 -7 86 -29
23 -50 25 -102 10z"/>
<path d="M3175 4381 c-90 -40 -211 -218 -222 -325 -5 -46 -2 -55 22 -84 31
-37 74 -62 105 -62 30 0 91 33 124 69 31 33 46 28 46 -15 0 -29 26 -62 39 -49
12 12 53 234 49 268 -1 12 2 39 6 60 11 48 -5 87 -51 127 -39 35 -62 37 -118
11z m82 -73 c16 -21 24 -66 15 -85 -5 -10 -21 -44 -35 -75 -49 -107 -135 -176
-187 -148 -25 14 -26 45 0 105 45 104 138 209 191 214 4 1 11 -5 16 -11z"/>
<path d="M3657 4385 c-21 -8 -58 -29 -82 -46 -111 -80 -100 -138 44 -234 24
-16 48 -40 54 -53 28 -61 -105 -86 -197 -37 -50 27 -66 26 -66 -5 0 -29 63
-76 119 -90 91 -22 175 5 224 71 36 50 -3 112 -122 191 -46 31 -52 55 -18 85
49 45 113 57 151 28 28 -21 36 -19 36 11 0 31 -59 94 -86 93 -11 0 -36 -7 -57
-14z"/>
<path d="M369 2807 c-35 -30 -83 -78 -106 -108 -41 -53 -93 -152 -93 -177 0
-7 -22 -55 -49 -105 -126 -236 -152 -492 -73 -721 104 -302 425 -566 902 -741
362 -132 864 -237 1320 -275 161 -13 566 -5 705 14 465 64 846 229 1111 479
111 104 177 203 198 297 15 64 15 73 0 110 -21 52 -84 107 -171 149 -83 41
-216 84 -758 245 -411 122 -1719 525 -2484 765 -212 67 -396 121 -411 121 -17
0 -49 -19 -91 -53z m504 -123 c1208 -379 2397 -743 2737 -839 306 -86 499
-157 565 -209 19 -15 17 -15 -26 -10 -81 11 -294 -25 -599 -102 -162 -40 -333
-80 -380 -88 -166 -28 -366 -39 -614 -33 -576 15 -1067 106 -1521 282 -452
176 -708 392 -800 674 -42 129 -6 232 130 369 45 45 88 82 94 82 7 0 193 -57
414 -126z m-711 -366 c-9 -40 -15 -117 -16 -213 -1 -150 -1 -150 31 -217 35
-71 62 -163 89 -291 28 -138 83 -177 293 -208 177 -27 244 -61 421 -213 65
-56 153 -109 213 -128 18 -6 120 -13 227 -17 217 -8 216 -7 346 -96 124 -85
250 -97 470 -44 116 28 141 30 249 27 84 -3 146 -12 205 -28 78 -21 91 -29
148 -84 l64 -61 -39 -6 c-89 -15 -358 -20 -523 -9 -319 20 -606 65 -935 144
-651 159 -1060 391 -1248 707 -97 165 -125 394 -73 598 20 80 76 212 86 206 4
-2 1 -33 -8 -67z m71 -99 c11 -22 43 -73 73 -114 29 -41 47 -75 41 -75 -32 0
-109 62 -127 103 -19 41 -27 127 -12 127 4 0 15 -19 25 -41z m-1 -183 c45 -39
113 -66 167 -66 23 -1 46 -9 62 -24 l27 -23 -20 -59 c-26 -78 -22 -180 11
-247 28 -58 97 -128 165 -168 32 -19 42 -29 26 -25 -14 3 -71 12 -127 20 -160
24 -213 60 -232 159 -5 29 -17 87 -25 131 -9 43 -33 117 -55 165 -37 81 -61
171 -46 171 4 0 25 -16 47 -34z m367 -195 c111 -76 316 -175 486 -236 67 -24
69 -27 52 -66 -56 -135 -250 -157 -449 -52 -127 66 -197 175 -185 287 5 52 22
106 32 106 3 0 32 -18 64 -39z m3545 -271 c71 -11 86 -24 88 -73 4 -103 -160
-298 -366 -436 -126 -84 -192 -118 -325 -170 -161 -63 -461 -139 -469 -120 -7
16 63 132 105 176 60 61 111 83 199 83 114 0 248 39 409 119 151 76 239 143
270 207 20 43 16 102 -14 169 -26 58 -11 64 103 45z m-2895 -19 c23 -6 24 -10
25 -111 2 -88 6 -113 26 -154 33 -68 90 -121 158 -146 101 -38 330 -44 438
-12 111 34 184 111 200 212 l7 41 41 -7 c56 -9 56 -9 56 -64 0 -112 73 -221
184 -275 82 -40 221 -61 322 -48 95 12 191 53 253 108 56 51 111 163 111 226
0 63 21 65 44 5 62 -163 203 -216 439 -168 224 47 335 139 342 286 l3 61 42
15 c48 17 53 13 70 -63 8 -38 7 -54 -4 -76 -34 -65 -173 -162 -318 -222 -123
-51 -200 -70 -315 -78 -94 -7 -120 -13 -157 -35 -61 -35 -121 -107 -167 -197
-34 -69 -52 -89 -80 -89 -6 0 -44 32 -85 71 -83 78 -110 92 -233 120 -134 29
-277 26 -431 -11 -138 -33 -248 -39 -321 -17 -25 8 -82 39 -127 70 -110 76
-153 87 -327 87 -227 0 -296 21 -421 130 -58 50 -127 103 -220 168 -18 12 -18
13 1 6 49 -16 172 -16 229 0 67 20 136 82 155 139 13 38 18 40 60 28z m2593
-43 c9 -176 -81 -262 -319 -303 -151 -26 -222 -17 -289 38 -32 27 -90 125 -79
135 2 2 45 12 97 22 51 10 199 46 328 79 129 33 241 61 248 61 7 0 13 -14 14
-32z m-2347 -23 c154 -36 476 -95 521 -95 81 0 0 -153 -105 -199 -130 -56
-356 -48 -477 17 -64 35 -104 106 -112 197 -5 64 2 115 16 115 4 0 75 -16 157
-35z m1238 -132 l287 4 0 -32 c0 -49 -64 -169 -110 -205 -65 -51 -126 -73
-228 -79 -255 -17 -415 81 -430 264 l-4 61 98 -9 c55 -5 228 -6 387 -4z"/>
</g>
</svg>
